<?xml version="1.0" standalone="no"?>
<!DOCTYPE svg PUBLIC "-//W3C//DTD SVG 20010904//EN"
 "http://www.w3.org/TR/2001/REC-SVG-20010904/DTD/svg10.dtd">
<svg version="1.0" xmlns="http://www.w3.org/2000/svg"
 width="2657.000000pt" height="2657.000000pt" viewBox="0 0 2657.000000 2657.000000"
 preserveAspectRatio="xMidYMid meet">
<metadata>
Created by potrace 1.11, written by Peter Selinger 2001-2013
</metadata>
<g transform="translate(0.000000,2657.000000) scale(0.100000,-0.100000)"
fill="#000000" stroke="none">
<path d="M12740 26549 c-2771 -115 -5397 -1074 -7588 -2773 -1023 -792 -1921
-1727 -2679 -2788 -1605 -2244 -2463 -4929 -2463 -7703 0 -2942 961 -5766
2755 -8096 1176 -1528 2687 -2795 4395 -3683 2179 -1134 4617 -1637 7080
-1461 3542 254 6809 1903 9129 4610 1716 2001 2801 4480 3100 7085 273 2375
-83 4739 -1040 6913 -111 252 -395 822 -528 1060 -1035 1853 -2450 3398 -4196
4579 -2334 1580 -5136 2374 -7965 2257z m1390 -263 c732 -52 1341 -140 2023
-292 1619 -361 3192 -1054 4566 -2012 1279 -891 2383 -1997 3275 -3281 1296
-1863 2077 -4037 2270 -6311 34 -399 40 -568 40 -1100 1 -533 -5 -695 -40
-1105 -165 -1981 -782 -3893 -1805 -5596 -1102 -1835 -2643 -3377 -4476 -4478
-1152 -692 -2417 -1205 -3718 -1510 -1041 -244 -2060 -353 -3160 -338 -432 6
-550 11 -930 42 -3039 248 -5919 1589 -8100 3770 -1458 1458 -2534 3205 -3174
5156 -345 1055 -539 2073 -623 3279 -17 250 -17 1300 0 1550 86 1231 282 2248
641 3330 212 636 411 1117 712 1720 939 1877 2317 3499 4025 4736 1894 1371
4125 2205 6454 2413 193 17 341 27 680 45 179 9 1131 -4 1340 -18z"/>
<path d="M12720 25874 c-910 -50 -1653 -157 -2455 -354 -2811 -690 -5311
-2346 -7061 -4675 -1084 -1443 -1841 -3092 -2228 -4855 -330 -1500 -380 -3096
-145 -4627 345 -2258 1301 -4376 2769 -6138 404 -485 919 -1013 1393 -1427
1997 -1746 4487 -2817 7112 -3057 446 -41 569 -46 1180 -46 610 0 726 4 1177
46 2465 224 4824 1187 6758 2758 561 455 1118 995 1591 1541 1724 1990 2780
4466 3018 7075 41 444 46 579 46 1170 0 591 -5 726 -46 1170 -123 1356 -470
2689 -1025 3940 -116 262 -365 760 -501 1005 -483 863 -1051 1653 -1717 2385
-178 196 -698 709 -896 886 -1121 999 -2358 1767 -3740 2321 -1102 442 -2303
730 -3490 838 -431 39 -509 42 -1090 45 -322 1 -614 1 -650 -1z m780 -663 c77
-29 124 -71 159 -144 41 -83 48 -151 56 -517 10 -479 9 -538 -10 -595 -34
-100 -95 -162 -200 -200 -75 -27 -487 -35 -571 -10 -147 43 -220 149 -230 335
-14 265 -22 813 -13 870 20 123 86 208 195 250 109 43 511 50 614 11z m-1272
-774 c51 -407 92 -741 89 -743 -4 -4 -210 -33 -213 -30 -1 0 -20 142 -42 314
-22 172 -41 315 -43 317 -5 5 -508 -60 -514 -67 -3 -2 13 -144 35 -314 22
-170 36 -311 32 -315 -8 -7 -203 -31 -209 -25 -6 5 -193 1480 -188 1484 5 5
209 31 213 28 2 -2 21 -145 43 -317 22 -173 41 -314 42 -315 5 -4 509 65 514
69 3 3 -11 138 -31 299 -21 161 -38 302 -39 313 -2 18 7 21 78 31 44 7 93 11
110 10 l29 -1 94 -738z m2662 688 c150 -19 274 -36 276 -38 5 -5 -21 -206 -28
-212 -2 -3 -108 8 -234 25 -126 16 -252 30 -280 30 -57 0 -94 -22 -119 -69
-17 -34 -119 -823 -111 -870 7 -46 28 -75 68 -94 19 -8 143 -29 288 -47 140
-18 256 -33 257 -34 4 -3 -25 -208 -30 -213 -6 -6 -478 53 -546 68 -166 37
-261 154 -261 322 0 75 92 830 110 906 22 91 87 182 155 219 30 16 122 40 161
41 11 1 143 -15 294 -34z m920 -159 c56 -13 103 -26 104 -27 2 -2 -32 -157
-75 -343 -43 -187 -77 -341 -75 -344 2 -2 161 119 353 269 191 150 353 276
359 281 9 7 260 -45 271 -56 2 -2 -163 -137 -366 -300 l-369 -297 23 -52 c13
-29 102 -220 199 -426 97 -205 176 -377 176 -381 0 -4 -59 7 -132 24 l-132 31
-200 412 c-110 227 -202 410 -204 408 -2 -1 -38 -154 -81 -339 -43 -185 -81
-339 -84 -342 -3 -4 -51 4 -107 16 -69 16 -100 28 -100 37 0 8 74 336 165 730
91 393 165 717 165 719 0 6 0 6 110 -20z m-5753 -279 c19 -54 33 -100 31 -101
-1 -2 -135 -47 -296 -101 -161 -54 -295 -102 -298 -107 -8 -13 119 -388 131
-388 10 0 543 177 585 194 13 5 23 -15 50 -98 19 -58 32 -107 29 -109 -2 -3
-137 -48 -299 -102 -162 -54 -296 -99 -297 -100 -6 -4 130 -395 137 -395 5 0
140 45 301 100 162 55 296 96 300 92 10 -11 69 -195 64 -200 -6 -6 -793 -272
-804 -272 -10 0 -483 1398 -478 1413 4 13 774 277 796 274 7 -1 29 -46 48
-100z m7628 -291 c215 -85 390 -158 390 -163 0 -24 -71 -193 -81 -193 -7 0
-142 51 -301 114 l-288 114 -76 -192 c-42 -105 -75 -194 -73 -197 1 -3 134
-57 293 -120 160 -63 291 -118 291 -124 0 -16 -73 -195 -79 -195 -4 0 -137 52
-296 114 -160 63 -293 112 -297 108 -16 -18 -149 -375 -142 -382 5 -4 137 -58
294 -120 157 -61 286 -113 288 -115 2 -1 -15 -47 -37 -101 -30 -75 -43 -98
-56 -96 -16 3 -777 301 -783 308 -4 2 521 1340 540 1377 5 9 12 17 16 17 4 0
183 -70 397 -154z m-8937 -173 c23 -53 41 -97 39 -99 -1 -1 -108 -50 -237
-108 -129 -59 -244 -116 -256 -127 -37 -35 -49 -75 -36 -123 10 -37 281 -647
332 -747 12 -22 35 -49 53 -60 54 -34 99 -22 343 89 122 56 227 103 233 104 9
3 106 -191 99 -197 -20 -15 -489 -218 -532 -230 -71 -21 -175 -16 -225 9 -48
26 -116 91 -146 142 -47 80 -366 798 -382 859 -40 154 29 290 189 373 99 51
451 210 468 211 10 1 30 -33 58 -96z m9907 -243 c97 -56 100 -59 98 -92 -2
-18 -14 -172 -29 -341 -14 -170 -24 -311 -21 -313 2 -2 129 84 282 191 153
107 282 195 288 195 9 0 143 -74 190 -105 15 -11 -35 -47 -381 -276 l-399
-264 -159 -277 c-87 -153 -163 -278 -167 -278 -7 0 -133 71 -175 98 -10 7 27
79 147 288 l160 279 28 478 c15 262 30 477 33 477 3 -1 50 -27 105 -60z
m-10843 -907 c202 -351 369 -645 373 -653 4 -11 -19 -30 -86 -68 -51 -29 -96
-49 -100 -45 -12 13 -731 1267 -736 1283 -3 10 24 32 84 67 48 28 90 52 93 52
3 1 171 -286 372 -636z m6053 -73 c1741 -107 3357 -649 4805 -1611 2452 -1628
4040 -4288 4304 -7209 53 -578 53 -1212 0 -1790 -238 -2625 -1544 -5048 -3614
-6707 -2102 -1684 -4804 -2415 -7490 -2027 -2429 351 -4647 1627 -6197 3564
-1020 1275 -1715 2828 -1983 4429 -97 583 -134 1027 -134 1636 0 417 9 599 45
965 249 2539 1491 4877 3464 6519 1509 1257 3359 2025 5310 2205 160 15 457
34 635 40 151 5 680 -4 855 -14z m-7075 -572 c250 -319 455 -586 455 -593 0
-14 -148 -135 -164 -135 -5 0 -262 97 -572 215 -309 118 -564 213 -566 211 -2
-1 141 -186 317 -410 256 -325 319 -411 310 -422 -18 -20 -160 -128 -164 -123
-2 2 -162 207 -357 454 -194 248 -401 512 -461 587 l-107 137 84 65 c46 36 88
66 93 66 5 0 262 -97 572 -215 310 -118 565 -214 566 -212 2 1 -141 186 -316
409 -176 224 -320 411 -320 415 1 9 158 133 168 132 4 0 212 -262 462 -581z
m13905 229 c55 -44 99 -85 99 -91 -2 -14 -563 -1438 -569 -1444 -4 -5 -147
101 -164 122 -6 7 12 65 50 166 32 85 55 157 51 160 -4 4 -92 73 -197 155
-104 81 -197 154 -206 162 -14 11 -34 1 -154 -82 l-138 -96 -72 56 c-92 70
-104 84 -85 95 8 5 296 207 639 449 344 242 630 437 635 433 6 -3 56 -42 111
-85z m945 -864 c45 -20 94 -64 263 -237 114 -116 226 -232 247 -257 l40 -46
-81 -74 -81 -73 -156 165 c-307 323 -316 331 -393 314 -32 -7 -147 -104 -186
-158 -28 -38 -30 -100 -5 -142 11 -16 69 -83 130 -148 140 -149 167 -199 167
-312 0 -113 -22 -153 -160 -292 -137 -138 -208 -178 -316 -177 -115 0 -156 28
-362 238 -98 99 -208 214 -244 254 l-66 73 74 75 c40 40 77 74 80 74 4 0 102
-100 219 -223 116 -123 224 -231 240 -240 66 -39 120 -19 221 81 126 127 121
156 -54 341 -144 151 -182 219 -182 326 0 93 34 163 128 262 187 197 322 247
477 176z m-16504 -3 c31 -10 79 -37 108 -59 66 -51 628 -586 662 -631 50 -66
78 -140 78 -207 0 -51 -7 -74 -37 -135 -29 -59 -64 -102 -187 -230 -129 -134
-161 -162 -222 -192 -57 -29 -82 -36 -129 -36 -69 0 -141 25 -201 69 -54 40
-600 559 -655 622 -68 80 -88 131 -88 224 0 118 31 169 219 363 220 225 303
265 452 212z m-1121 -1109 c44 -32 80 -64 79 -72 -1 -8 -46 -78 -102 -156
l-101 -142 257 -183 c141 -101 375 -266 519 -368 144 -102 262 -189 262 -193
1 -9 -106 -164 -119 -172 -4 -3 -230 153 -501 346 -272 193 -506 360 -521 370
l-26 19 -107 -150 c-58 -82 -108 -150 -111 -150 -8 0 -174 120 -174 126 0 9
554 784 559 784 4 0 42 -27 86 -59z m18588 11 c26 -11 69 -41 96 -67 41 -39
421 -511 429 -534 1 -4 -36 -38 -82 -74 l-85 -67 -54 68 c-29 37 -119 150
-199 252 -81 103 -158 191 -172 198 -68 31 -119 12 -234 -86 -113 -95 -109
-133 29 -309 55 -70 114 -157 132 -193 28 -56 32 -75 32 -140 0 -62 -5 -84
-29 -129 -33 -63 -93 -126 -196 -203 -122 -92 -171 -113 -265 -113 -88 0 -138
18 -208 76 -38 31 -437 531 -437 548 0 10 154 131 167 131 4 -1 80 -93 168
-207 207 -266 238 -300 284 -314 47 -14 87 2 170 65 90 70 111 99 111 156 0
44 -6 56 -52 117 -29 37 -80 105 -114 149 -126 166 -138 300 -38 435 38 53
201 187 268 221 101 52 191 59 279 20z m-19432 -1243 c49 -28 89 -55 89 -60 0
-5 -67 -127 -150 -271 -82 -144 -154 -276 -159 -295 -12 -42 2 -93 31 -120 21
-20 609 -362 707 -412 24 -13 59 -21 87 -21 42 0 51 4 83 39 20 21 65 92 101
157 97 177 91 216 -45 298 -38 24 -100 59 -136 80 l-67 36 -76 -135 c-43 -74
-81 -135 -86 -135 -4 0 -49 23 -98 52 l-91 52 24 40 c13 23 71 124 130 226 58
102 110 189 114 193 11 11 460 -249 519 -299 100 -86 133 -207 94 -333 -26
-79 -171 -334 -229 -400 -91 -104 -226 -134 -358 -80 -59 24 -710 395 -791
450 -138 94 -184 244 -123 394 24 58 328 595 337 595 3 0 45 -23 93 -51z
m20309 -35 c29 -16 71 -50 94 -76 48 -56 217 -347 246 -425 56 -150 -1 -304
-147 -396 -116 -73 -735 -423 -777 -440 -35 -14 -75 -20 -126 -21 -145 0 -222
67 -362 315 -111 197 -129 239 -136 315 -7 96 17 155 97 234 57 56 117 94 439
279 206 117 399 222 430 232 82 27 173 21 242 -17z m-20435 -1585 c380 -150
691 -273 692 -274 2 -1 -16 -47 -38 -103 -35 -87 -45 -102 -67 -106 -15 -3
-286 -49 -602 -101 -316 -53 -575 -97 -577 -99 -2 -1 212 -87 475 -190 262
-104 481 -192 486 -196 5 -5 -8 -51 -30 -105 -33 -84 -41 -96 -58 -92 -25 5
-1367 535 -1374 542 -4 4 62 186 72 202 2 2 1199 203 1213 203 4 0 -212 88
-482 194 -269 106 -490 198 -490 202 0 22 71 194 80 194 6 0 321 -122 700
-271z m21119 177 c46 -19 121 -89 151 -140 24 -41 215 -516 215 -534 0 -15
-189 -87 -200 -76 -5 5 -47 107 -94 226 -47 119 -92 231 -101 248 -23 45 -71
72 -120 67 -38 -4 -708 -263 -794 -307 -51 -25 -75 -69 -69 -124 3 -23 46
-145 97 -272 50 -126 91 -233 91 -236 0 -7 -180 -78 -196 -78 -11 0 -189 443
-210 525 -42 157 19 296 163 372 71 38 789 322 858 340 59 15 159 10 209 -11z
m571 -1297 c16 -57 24 -104 19 -108 -10 -9 -1389 -402 -1419 -404 -15 -2 -24
15 -47 93 -15 52 -26 99 -25 105 3 8 1400 412 1433 414 6 1 23 -44 39 -100z
m-22208 -330 c389 -111 710 -203 712 -205 2 -2 -9 -51 -24 -109 -23 -85 -31
-104 -44 -100 -9 2 -333 95 -720 204 -387 110 -705 202 -708 204 -4 4 44 183
54 200 2 4 8 7 13 7 5 0 327 -91 717 -201z m21673 -544 c415 -48 762 -90 770
-94 13 -7 57 -201 59 -262 1 -12 -191 -114 -695 -369 -383 -193 -698 -349
-701 -347 -2 3 -12 50 -22 106 -14 74 -15 103 -7 110 6 5 65 36 131 69 66 33
128 66 137 74 16 12 14 29 -29 273 -26 143 -51 263 -55 266 -5 3 -81 14 -168
24 -95 11 -160 23 -160 29 -1 6 -9 55 -19 109 -13 67 -15 97 -7 97 6 0 351
-38 766 -85z m-21197 -236 c67 -11 77 -16 76 -33 0 -12 -32 -201 -72 -421 -66
-364 -74 -400 -92 -402 -20 -3 -1452 251 -1459 258 -2 2 5 52 16 110 18 99 21
106 41 102 484 -89 1234 -219 1238 -214 4 3 30 141 59 306 29 165 55 304 58
309 2 4 16 6 31 3 14 -3 61 -11 104 -18z m22167 -1032 c0 -13 16 -228 35 -477
19 -250 35 -458 35 -462 0 -7 -209 -23 -216 -15 -3 2 -12 85 -19 182 -8 98
-16 179 -17 181 -2 1 -289 -19 -638 -46 -349 -27 -636 -47 -637 -46 -1 1 -5
50 -9 108 l-7 107 24 5 c13 2 298 25 633 50 335 25 611 48 614 50 2 3 -1 84
-8 181 -7 97 -10 179 -6 183 4 4 42 10 84 13 140 10 132 11 132 -14z m-22282
-222 c4 -4 -60 -849 -65 -854 -3 -5 -1351 94 -1447 106 l-49 6 8 106 c3 58 8
107 10 109 1 2 288 -19 636 -46 349 -27 635 -48 637 -46 3 2 52 595 52 628 0
7 210 -1 218 -9z m21727 -1250 c318 -8 588 -15 598 -15 17 0 19 -7 15 -104 -1
-57 -6 -107 -10 -111 -7 -7 -1383 22 -1455 31 l-43 5 0 94 c0 51 3 101 6 109
5 14 25 15 158 11 83 -3 412 -12 731 -20z m-21757 -431 c18 -235 31 -428 30
-429 -5 -4 -1491 -115 -1495 -111 -7 6 -67 846 -61 852 9 8 202 22 209 15 4
-3 17 -147 30 -318 22 -302 24 -313 44 -313 44 0 388 30 393 34 2 3 -6 145
-19 315 -13 171 -21 313 -18 315 7 8 210 23 213 16 2 -3 14 -146 26 -317 l23
-313 36 0 c64 1 372 28 378 33 3 3 -4 129 -16 279 -12 150 -21 292 -21 315 l0
42 48 4 c26 2 74 4 108 5 l60 2 32 -426z m21612 -254 c473 -60 514 -70 596
-142 96 -84 112 -196 70 -497 -20 -146 -31 -196 -54 -245 -50 -107 -118 -157
-239 -177 -62 -10 -108 -6 -506 45 -241 31 -459 64 -485 72 -150 50 -222 152
-222 316 0 84 33 364 52 433 28 107 110 203 197 229 77 24 179 18 591 -34z
m-21525 -772 c3 -13 16 -71 30 -130 14 -59 25 -112 25 -116 0 -5 -236 -117
-524 -248 -289 -131 -524 -240 -523 -241 1 0 223 5 492 13 270 7 529 13 577
14 l86 0 27 -117 c15 -65 29 -127 31 -138 4 -18 -70 -54 -691 -329 -383 -169
-699 -306 -702 -303 -10 11 -52 202 -45 208 4 4 246 109 537 234 292 125 532
230 535 232 2 2 -263 1 -590 -3 l-596 -7 -23 107 c-14 63 -20 110 -15 115 5 5
241 121 524 257 451 218 510 249 478 252 -20 2 -278 -9 -574 -23 -296 -14
-540 -22 -544 -18 -8 10 -53 203 -49 207 4 4 1291 52 1436 55 88 1 93 0 98
-21z m21300 -739 c391 -111 713 -204 717 -208 7 -6 -44 -196 -55 -207 -3 -3
-263 -75 -578 -160 -316 -85 -581 -157 -589 -160 -8 -4 210 -70 484 -148 275
-78 502 -148 504 -154 3 -10 -45 -192 -53 -200 -5 -5 -1428 398 -1437 407 -4
4 5 51 20 106 21 71 34 101 48 107 10 4 271 76 579 158 308 83 567 153 575
156 11 5 -545 169 -962 284 l-36 10 19 68 c11 37 24 84 30 105 5 20 13 37 17
37 4 0 327 -90 717 -201z m-4501 -6429 c115 -29 189 -73 281 -165 238 -236
248 -563 26 -786 -94 -94 -208 -148 -351 -164 -194 -23 -403 105 -498 305 -52
110 -66 173 -65 290 1 173 73 318 208 419 23 17 24 19 6 10 -36 -17 -119 -97
-153 -146 -16 -24 -41 -73 -55 -110 -24 -61 -27 -81 -27 -198 -1 -149 12 -203
77 -329 103 -199 316 -324 510 -300 119 15 288 89 336 147 7 9 18 17 24 17 20
0 -57 -71 -131 -120 -122 -83 -311 -128 -493 -118 -264 14 -478 184 -559 443
-33 104 -31 252 4 361 64 199 213 343 427 413 167 55 304 64 433 31z m-12334
-186 c192 -36 337 -109 440 -222 114 -124 165 -268 158 -442 -6 -129 -36 -224
-104 -323 -134 -196 -349 -291 -602 -266 -208 21 -334 74 -451 187 -42 41 -58
59 -36 41 141 -119 329 -178 480 -150 357 66 573 535 404 880 -34 70 -131 173
-190 204 -30 16 -31 16 -9 1 50 -35 146 -140 172 -190 39 -73 58 -156 58 -257
0 -171 -59 -318 -174 -433 -139 -139 -293 -182 -480 -134 -191 48 -328 175
-393 361 -51 148 -24 329 71 471 52 79 160 177 236 216 135 67 268 85 420 56z
m2138 -635 c174 -55 318 -101 319 -103 2 -1 -36 -126 -52 -173 -2 -8 -22 -5
-67 8 -83 26 -113 16 -127 -38 -7 -30 -42 -817 -41 -952 0 -31 25 -1 261 314
287 382 285 379 260 482 -16 61 -51 98 -115 119 -28 9 -52 17 -53 18 -1 1 11
42 26 91 24 75 31 89 47 87 26 -5 664 -209 669 -214 4 -3 -44 -165 -52 -177
-1 -2 -37 6 -78 18 -88 26 -118 22 -133 -16 -12 -30 -22 -998 -11 -985 18 22
499 742 512 769 37 71 8 115 -101 147 -42 13 -62 24 -62 35 0 34 52 172 64
168 6 -2 151 -48 321 -102 171 -54 311 -98 312 -100 2 -1 -11 -42 -28 -92
l-30 -91 -50 15 c-46 14 -55 13 -94 -2 -24 -9 -57 -31 -72 -48 -15 -18 -196
-284 -402 -592 -206 -308 -377 -564 -382 -569 -7 -8 -295 77 -312 93 -4 4 -2
201 4 439 6 237 9 436 7 442 -2 6 -122 -152 -267 -350 -146 -199 -267 -362
-270 -364 -8 -4 -283 83 -294 93 -4 4 2 284 14 622 11 338 19 664 17 726 -4
132 -16 156 -94 188 -27 10 -50 20 -52 21 -3 1 48 165 55 177 3 5 12 6 20 3 8
-3 157 -51 331 -107z m7720 -673 c259 -305 483 -563 498 -575 33 -26 91 -28
158 -5 26 9 49 15 51 13 7 -7 65 -172 61 -176 -5 -5 -785 -283 -795 -283 -5 0
-21 35 -36 77 -15 43 -29 83 -31 90 -3 6 11 16 33 23 87 28 184 73 193 90 6
12 7 28 1 43 -14 35 -172 223 -185 219 -6 -2 -121 -42 -255 -90 l-243 -87 6
-65 c3 -36 6 -101 6 -145 0 -44 4 -86 9 -94 14 -21 56 -16 159 19 51 18 94 31
96 29 6 -7 66 -179 62 -179 -1 0 -160 -56 -352 -125 -192 -69 -354 -125 -361
-125 -9 0 -79 169 -71 175 2 1 29 12 61 25 71 28 113 68 127 122 8 28 11 259
9 749 -1 390 1 712 4 715 8 8 298 113 313 113 7 1 223 -248 482 -553z m-1854
17 l7 -93 -38 0 c-65 0 -167 -20 -185 -37 -10 -9 -20 -30 -23 -47 -7 -40 81
-1093 94 -1128 16 -43 43 -51 153 -46 113 6 105 13 110 -107 l3 -80 -435 -36
c-239 -20 -438 -33 -441 -30 -4 3 -9 47 -13 97 l-6 91 92 7 c54 4 108 14 128
24 35 17 35 17 38 92 3 77 -24 429 -34 439 -4 4 -685 -47 -691 -52 -5 -6 39
-458 48 -484 15 -46 55 -56 177 -48 l99 7 6 -92 c4 -52 6 -95 4 -96 -2 -2
-198 -20 -437 -39 -321 -27 -435 -33 -440 -25 -7 11 -21 172 -16 177 1 1 41 7
89 12 112 13 139 26 148 71 7 32 -72 1057 -86 1121 -12 54 -36 64 -151 61
-119 -3 -108 -13 -118 116 -5 54 -3 72 6 72 7 0 200 16 428 35 228 19 422 35
431 35 13 0 17 -17 23 -92 3 -50 4 -93 2 -95 -2 -2 -46 -8 -97 -13 -52 -6
-106 -15 -121 -21 -45 -18 -49 -55 -30 -289 l16 -209 41 5 c22 3 177 16 344
29 167 14 306 27 309 29 7 8 -28 398 -39 434 -16 48 -37 55 -163 51 l-111 -4
-7 90 c-4 49 -4 92 -2 95 8 7 868 77 875 71 4 -3 9 -48 13 -98z m-2984 2 c195
-14 365 -25 377 -25 21 0 23 -4 23 -62 0 -35 -3 -79 -6 -98 l-6 -35 -104 3
c-120 4 -147 -6 -158 -60 -9 -44 -76 -984 -76 -1066 0 -35 4 -72 10 -82 13
-25 56 -38 156 -46 l87 -7 -7 -90 c-3 -50 -8 -93 -11 -96 -7 -6 -872 53 -880
60 -3 3 -2 47 1 96 l7 91 114 -1 c107 -2 116 -1 132 20 25 30 25 32 67 624 42
599 43 575 -36 596 -25 6 -71 12 -102 12 -88 1 -87 0 -81 94 7 115 3 110 75
102 35 -3 223 -17 418 -30z"/>
<path d="M13158 25010 c-149 -4 -170 -7 -195 -26 -61 -45 -62 -66 -44 -689 10
-356 4 -349 300 -343 210 4 236 11 268 78 15 32 16 69 6 455 -8 372 -12 424
-28 458 -32 68 -63 75 -307 67z"/>
<path d="M12795 22840 c-902 -50 -1748 -212 -2580 -494 -1200 -406 -2261
-1020 -3250 -1879 -192 -166 -700 -676 -876 -878 -1542 -1770 -2369 -3970
-2369 -6304 0 -1306 255 -2560 762 -3750 396 -928 927 -1771 1621 -2570 156
-181 681 -706 862 -862 1513 -1314 3286 -2100 5236 -2322 389 -45 585 -55
1074 -55 478 -1 614 5 995 45 1847 190 3577 903 5023 2072 505 408 1029 932
1434 1434 1416 1755 2162 3927 2120 6168 -13 638 -70 1163 -193 1774 -503
2483 -2029 4712 -4179 6102 -1351 873 -2846 1375 -4485 1505 -231 18 -961 26
-1195 14z m1080 -210 c1668 -110 3239 -642 4610 -1561 591 -396 1082 -811
1592 -1344 979 -1025 1727 -2297 2149 -3659 223 -718 351 -1424 405 -2226 16
-227 16 -885 0 -1110 -77 -1144 -312 -2134 -749 -3155 -71 -168 -326 -692
-370 -761 -18 -28 -29 -32 -130 -54 -61 -12 -115 -26 -121 -29 -12 -8 11 -167
25 -165 5 1 29 5 53 9 l44 7 -23 -38 c-232 -383 -569 -880 -595 -876 -5 0 -81
286 -168 634 -87 348 -159 634 -160 635 -2 1 -134 -41 -294 -93 -196 -63 -291
-99 -288 -107 13 -37 405 -1671 405 -1685 -1 -9 -43 -61 -93 -115 l-93 -99
-358 1547 c-196 851 -355 1549 -352 1552 6 6 297 -67 309 -77 4 -3 28 -87 53
-186 25 -98 49 -195 55 -215 l9 -37 260 111 c143 61 260 114 260 120 0 5 -63
215 -140 467 -77 252 -140 464 -140 472 1 7 86 128 190 268 105 140 190 258
190 261 0 9 -368 154 -575 227 -326 115 -1077 336 -1089 321 -2 -2 244 -1142
546 -2534 l549 -2530 -113 -110 c-62 -61 -194 -181 -293 -268 l-180 -158 -55
6 c-96 9 -790 54 -1245 80 -2432 137 -4264 152 -7185 60 -1054 -34 -2055 -80
-3024 -141 -344 -21 -402 -23 -420 -10 -94 62 -666 590 -785 725 l-63 72 532
2455 c293 1350 530 2458 526 2461 -14 14 -711 -150 -1076 -253 -235 -67 -646
-202 -828 -274 l-133 -52 24 -31 c115 -152 459 -620 463 -631 3 -8 -58 -224
-137 -481 -84 -274 -138 -469 -133 -474 12 -12 507 -222 511 -217 2 2 29 100
59 217 30 117 57 215 59 217 6 6 309 81 313 77 4 -4 -578 -2525 -587 -2542 -4
-7 -41 32 -94 98 l-88 110 136 562 c75 309 137 567 139 572 5 15 -574 202
-582 188 -4 -6 -42 -153 -86 -327 -43 -174 -81 -316 -85 -316 -3 0 -13 12 -22
28 -9 15 -68 113 -132 217 -63 105 -168 288 -232 408 l-117 217 181 689 c100
378 181 694 181 702 0 9 -55 36 -143 72 -121 49 -151 57 -204 57 -35 0 -63 4
-63 10 0 5 14 73 30 151 17 78 29 145 28 149 -3 8 -253 -133 -292 -165 l-24
-20 119 -224 c66 -123 118 -225 117 -227 -2 -1 -63 22 -136 52 -110 44 -144
54 -193 54 -40 0 -59 -4 -59 -12 0 -7 12 -74 27 -148 l26 -135 77 -110 c42
-60 79 -115 83 -121 6 -11 -20 -122 -33 -137 -16 -19 -234 587 -335 933 -397
1360 -479 2802 -240 4208 423 2485 1844 4703 3935 6140 1441 990 3098 1545
4875 1632 215 10 786 5 1010 -10z"/>
<path d="M14835 21983 c-44 -10 -202 -67 -237 -84 l-38 -19 90 -180 c50 -99
93 -180 96 -180 14 0 232 126 258 149 56 51 69 125 41 231 -20 75 -41 90 -124
89 -36 -1 -75 -3 -86 -6z"/>
<path d="M14416 21808 c38 -64 148 -221 118 -168 -25 45 -115 180 -120 180 -3
0 -2 -6 2 -12z"/>
<path d="M14221 21707 c-1 -8 77 -136 92 -152 12 -12 -51 102 -75 136 -9 13
-17 21 -17 16z"/>
<path d="M14430 21549 c-1 -13 71 -161 76 -156 3 3 -13 40 -35 83 -22 44 -40
76 -41 73z"/>
<path d="M13905 21484 c-112 -89 -172 -153 -203 -218 -23 -47 -105 -384 -351
-1436 -177 -756 -321 -1380 -321 -1386 0 -9 189 -29 197 -20 2 1 109 461 238
1022 139 600 252 1070 277 1144 106 322 185 446 356 555 39 25 72 49 72 52 0
16 -176 343 -185 342 -5 0 -41 -25 -80 -55z"/>
<path d="M14202 21418 c47 -130 62 -168 65 -164 6 5 -57 176 -64 176 -3 0 -3
-6 -1 -12z"/>
<path d="M12221 18810 c-1 -25 -8 -250 -16 -500 -8 -250 -14 -491 -14 -535 l0
-80 45 88 45 88 10 287 10 287 -40 205 c-26 136 -40 190 -40 160z"/>
<path d="M11909 18759 c0 -41 -6 -308 -13 -594 -7 -286 -12 -521 -11 -522 1
-2 38 50 83 114 l82 117 0 257 0 256 -66 219 c-37 121 -68 221 -70 223 -2 2
-4 -29 -5 -70z"/>
<path d="M11591 18685 c-1 -49 -6 -308 -12 -573 -6 -266 -9 -486 -6 -488 2 -3
41 46 86 107 l82 111 -11 250 -11 250 -60 206 c-32 114 -61 212 -63 217 -3 6
-5 -30 -5 -80z"/>
<path d="M11331 18640 c-1 -36 -10 -297 -21 -580 -11 -282 -18 -516 -16 -517
2 -2 31 39 65 91 l61 96 6 277 6 278 -46 200 c-26 110 -49 205 -51 210 -2 6
-4 -19 -4 -55z"/>
<path d="M11020 18640 c-3 -18 -40 -1020 -40 -1083 l0 -79 105 98 105 97 0
288 0 287 -85 199 c-46 109 -84 196 -85 193z"/>
<path d="M14938 18317 l-137 -212 15 -230 c8 -126 15 -229 17 -230 11 -8 311
-84 315 -80 7 6 -57 925 -66 947 -5 13 -43 -38 -144 -195z"/>
<path d="M10766 18489 c-3 -19 -17 -245 -31 -504 -14 -258 -28 -497 -31 -530
l-5 -60 47 50 c25 27 66 73 91 102 l46 54 9 308 9 308 -61 148 c-33 82 -62
151 -65 153 -2 2 -6 -11 -9 -29z"/>
<path d="M10495 18303 c-30 -465 -59 -1011 -54 -1005 155 174 189 216 193 235
12 55 56 609 50 620 -9 15 -165 239 -175 250 -3 5 -10 -40 -14 -100z"/>
<path d="M15265 18315 c-71 -86 -80 -101 -78 -133 9 -135 45 -627 47 -627 0 0
41 -27 89 -59 49 -31 91 -55 94 -53 5 6 -54 862 -65 925 l-7 43 -80 -96z"/>
<path d="M10240 18296 c0 -15 -18 -255 -40 -533 -23 -278 -40 -512 -38 -520 5
-24 228 174 228 202 0 31 29 519 34 573 3 40 -2 50 -90 174 -77 108 -94 126
-94 104z"/>
<path d="M15511 18209 l-83 -90 23 -328 23 -328 98 -67 c90 -62 98 -65 98 -44
1 53 -65 948 -70 948 -3 0 -43 -41 -89 -91z"/>
<path d="M10020 18234 c0 -5 -20 -250 -45 -544 -24 -294 -43 -536 -41 -537 4
-4 196 127 196 135 0 17 50 641 54 678 5 38 0 49 -74 153 -86 123 -90 129 -90
115z"/>
<path d="M15753 18147 c-86 -75 -82 -30 -48 -476 21 -283 26 -325 42 -336 10
-7 47 -36 82 -64 35 -28 66 -50 68 -47 6 5 -57 926 -65 958 l-7 27 -72 -62z"/>
<path d="M9810 18095 c0 -5 -22 -237 -49 -515 -28 -277 -48 -506 -47 -507 8
-8 182 141 188 160 7 21 59 634 58 687 0 17 -24 51 -75 105 -41 44 -74 76 -75
70z"/>
<path d="M15986 18004 l-78 -84 22 -313 c12 -171 25 -329 28 -349 6 -31 20
-46 92 -102 77 -59 85 -64 88 -44 5 30 -58 939 -66 959 -6 13 -25 -2 -86 -67z"/>
<path d="M9537 17512 c-32 -257 -61 -478 -64 -491 -5 -20 9 -14 101 48 59 40
109 78 111 84 2 7 20 174 39 372 32 332 33 361 18 370 -9 6 -46 27 -82 47
l-65 37 -58 -467z"/>
<path d="M16201 17920 c-35 -21 -67 -42 -71 -47 -6 -6 43 -761 49 -769 28 -30
154 -135 157 -131 7 7 -57 970 -65 979 -3 4 -35 -11 -70 -32z"/>
<path d="M16377 17752 l-58 -26 6 -50 c3 -28 14 -190 26 -361 l20 -310 77 -77
c42 -43 78 -76 80 -74 4 4 -65 838 -74 894 -3 17 -8 32 -12 31 -4 0 -33 -12
-65 -27z"/>
<path d="M16562 17608 c-62 -41 -64 -43 -59 -77 3 -20 18 -183 33 -363 l28
-327 85 -75 c47 -41 87 -73 88 -72 3 2 -99 869 -109 938 -3 15 -13 11 -66 -24z"/>
<path d="M12815 17539 c-1533 -41 -2758 -380 -3605 -997 -535 -390 -942 -910
-1183 -1514 l-35 -87 46 23 c30 16 64 46 92 83 164 212 409 458 600 600 1206
898 2665 1301 4420 1223 1658 -75 2927 -465 3901 -1201 286 -216 446 -376 626
-624 28 -38 65 -81 83 -94 l32 -23 -7 23 c-23 74 -103 287 -140 370 -194 439
-554 848 -1053 1199 -384 270 -938 538 -1463 708 -568 185 -1179 293 -1739
308 -102 2 -214 6 -250 7 -36 2 -182 0 -325 -4z"/>
<path d="M16717 17492 l-36 -37 44 -370 c25 -204 45 -377 45 -386 0 -20 93
-126 97 -112 4 10 -105 935 -110 940 -2 1 -20 -14 -40 -35z"/>
<path d="M16858 17375 c-21 -24 -38 -52 -38 -62 0 -10 18 -178 42 -373 l42
-355 50 -58 c32 -36 52 -52 54 -43 4 18 -96 870 -106 908 l-7 27 -37 -44z"/>
<path d="M12410 16624 c-394 -22 -655 -48 -936 -94 -1038 -169 -1936 -546
-2739 -1150 -71 -54 -152 -121 -180 -150 l-50 -52 40 17 c1090 455 1972 710
2949 850 469 67 801 94 1291 102 1350 22 2675 -231 4012 -765 153 -62 507
-214 598 -258 l50 -25 -82 79 c-166 159 -458 375 -718 531 -873 524 -1912 811
-3265 901 -158 11 -852 21 -970 14z"/>
<path d="M12710 15909 c-698 -28 -1571 -156 -2311 -339 -1237 -306 -2180 -739
-2757 -1266 -46 -42 -81 -78 -79 -80 2 -2 71 23 153 57 238 96 761 291 989
369 1771 602 3486 827 5215 684 1415 -117 2860 -500 4253 -1128 l59 -27 -20
28 c-34 48 -243 246 -332 315 -362 280 -872 538 -1505 762 -932 329 -2187 581
-3115 626 -225 11 -265 11 -550 -1z"/>
<path d="M12595 15139 c-2553 -109 -4358 -672 -5435 -1697 l-85 -81 55 21
c200 75 681 240 898 309 1452 457 2811 703 4242 769 280 13 1026 13 1300 0
1515 -72 2938 -347 4410 -855 181 -62 664 -241 694 -258 28 -14 -30 58 -137
170 -587 614 -1840 1134 -3441 1428 -905 166 -1707 228 -2501 194z"/>
<path d="M12245 14130 c-2421 -109 -4416 -692 -5700 -1666 -236 -179 -229
-170 -105 -129 195 66 654 206 920 281 1472 415 2890 660 4350 754 763 48
1684 46 2460 -6 1680 -112 3346 -446 4985 -999 137 -46 250 -83 252 -81 2 1
-39 49 -91 107 -282 315 -731 627 -1236 859 -1040 478 -2409 762 -4175 866
-314 18 -1364 27 -1660 14z"/>
<path d="M12660 13053 c-713 -24 -1741 -110 -2620 -219 -2046 -253 -3471 -621
-4080 -1052 -97 -69 -214 -186 -261 -259 -22 -36 -39 -67 -36 -69 2 -2 62 16
133 42 319 113 874 270 1329 374 1298 300 3030 522 4870 625 1137 64 1693 68
2485 20 1798 -110 3791 -468 5215 -935 148 -49 270 -88 272 -86 1 1 -15 29
-37 62 -214 327 -879 633 -1950 897 -1539 380 -3913 647 -5320 600z"/>
<path d="M12845 12299 c-869 -25 -2142 -95 -2491 -135 l-52 -6 95 -282 94
-281 -48 -658 -47 -659 34 -28 c35 -28 35 -29 41 -7 3 12 12 122 19 245 l13
224 121 -7 c151 -7 186 -13 186 -28 1 -29 -294 -4142 -297 -4147 -5 -6 -346
-31 -351 -25 -2 2 37 543 88 1202 l91 1198 95 223 c54 130 91 229 86 237 -14
24 -197 254 -202 255 -3 0 -66 -678 -139 -1507 -73 -830 -135 -1529 -138
-1555 l-6 -48 54 -1 c46 -1 49 -3 24 -9 -45 -12 -27 -11 430 5 569 20 1044 33
1640 45 275 5 613 13 751 16 l251 6 7 1787 c3 982 9 2273 12 2869 l7 1082 -54
-2 c-30 0 -171 -5 -314 -9z"/>
<path d="M13384 12113 c4 -109 27 -1323 51 -2698 25 -1375 48 -2577 51 -2671
l6 -171 842 -6 c462 -3 1011 -11 1219 -18 207 -7 379 -10 382 -8 4 5 -276
3958 -290 4092 l-6 57 145 0 144 0 7 -92 c4 -51 12 -164 18 -251 l12 -158 68
48 c37 25 67 51 67 57 -1 6 -31 299 -69 651 l-68 640 109 274 c60 150 108 275
106 276 -5 4 -456 53 -693 75 -604 56 -1445 99 -1943 100 l-164 0 6 -197z"/>
<path d="M9815 12115 c-616 -63 -1178 -138 -1670 -221 -270 -46 -565 -101
-570 -106 -1 -2 81 -138 182 -303 l185 -300 -97 -570 c-53 -313 -99 -580 -102
-591 -4 -19 14 -32 159 -107 90 -48 164 -83 165 -79 1 4 16 122 33 262 17 140
32 255 33 257 2 1 78 5 171 9 l167 7 -6 -34 c-13 -72 -584 -3954 -582 -3956 1
-1 191 9 422 22 231 13 573 31 760 39 448 21 525 26 525 37 0 15 579 5592 585
5632 6 45 51 44 -360 2z"/>
<path d="M16330 12096 c0 -13 140 -1271 310 -2796 171 -1525 310 -2776 310
-2780 0 -4 -17 -12 -37 -17 -27 -6 56 -13 305 -27 188 -10 526 -30 750 -45
224 -16 408 -27 409 -27 1 1 -128 884 -287 1961 -160 1078 -290 1971 -290
1984 l0 24 162 -7 c90 -4 164 -9 167 -11 2 -2 18 -121 35 -264 l31 -260 155
80 c85 44 159 84 163 88 5 5 -37 273 -92 597 l-100 588 156 254 c85 139 153
256 150 259 -16 15 -595 143 -967 212 -311 58 -654 114 -980 160 -157 22 -300
43 -317 45 -29 4 -33 2 -33 -18z"/>
<path d="M5285 11106 c-160 -72 -245 -114 -245 -119 0 -6 232 -442 239 -450 4
-4 31 81 59 190 29 109 67 255 86 326 18 70 31 127 27 126 -3 0 -78 -33 -166
-73z"/>
<path d="M20624 11013 c2 -10 31 -118 62 -240 32 -123 60 -223 64 -223 3 0 25
37 49 83 24 45 63 118 87 162 l43 81 -155 77 c-116 58 -154 73 -150 60z"/>
<path d="M21060 10792 c0 -8 39 -193 55 -259 5 -22 3 -23 -65 -23 -57 0 -86
-7 -157 -35 -49 -20 -94 -39 -101 -44 -11 -7 17 -125 138 -587 118 -451 231
-865 245 -891 1 -3 409 58 412 61 1 1 -52 206 -117 455 l-120 453 145 219 c80
121 145 224 145 229 0 16 -215 189 -218 176 -2 -7 6 -54 18 -104 28 -129 30
-122 -40 -122 -50 0 -82 -9 -195 -56 -75 -31 -138 -54 -140 -52 -2 2 48 102
111 222 64 120 114 219 112 220 -82 58 -228 146 -228 138z"/>
<path d="M4442 10633 l-32 -28 11 -65 c16 -99 20 -101 39 -20 36 159 36 158
-18 113z"/>
<path d="M15995 9959 c-66 -60 -120 -112 -120 -116 2 -39 18 -163 21 -163 3 0
56 46 119 102 l115 101 -1 51 c0 28 -4 69 -7 92 l-7 41 -120 -108z"/>
<path d="M10347 9972 l-5 -87 107 -102 c67 -65 108 -98 112 -90 4 7 10 45 13
84 l7 73 -90 86 c-50 47 -101 94 -115 105 l-24 19 -5 -88z"/>
<path d="M7698 9699 c-1 -38 -2 -80 -2 -94 -1 -24 15 -33 194 -115 106 -50
197 -90 201 -90 3 0 20 34 37 75 29 71 30 76 12 85 -10 5 -113 54 -229 109
l-211 99 -2 -69z"/>
<path d="M18330 9659 c-118 -56 -217 -103 -219 -105 -6 -6 50 -154 59 -154 11
0 383 171 394 181 10 8 -2 179 -12 179 -4 0 -104 -46 -222 -101z"/>
<path d="M16007 9489 c-70 -73 -127 -136 -127 -140 0 -3 52 -102 116 -219
l115 -212 90 -1176 c49 -648 92 -1187 95 -1199 4 -21 10 -23 62 -23 l58 0
-137 1538 c-75 847 -138 1545 -141 1552 -2 7 -59 -45 -131 -121z"/>
<path d="M20052 9265 c-151 -57 -276 -105 -278 -108 -4 -4 50 -122 61 -135 3
-3 545 155 551 161 6 5 -48 187 -55 186 -3 0 -129 -47 -279 -104z"/>
<path d="M7634 9283 c-15 -81 -501 -2948 -499 -2950 0 -1 52 2 114 7 134 11
281 40 281 55 0 6 80 546 178 1201 l179 1189 108 168 c59 92 105 170 103 172
-5 5 -448 195 -454 195 -2 0 -6 -17 -10 -37z"/>
<path d="M18390 9225 c-118 -52 -219 -95 -223 -97 -5 -2 40 -79 100 -172 l108
-168 180 -1201 181 -1201 34 -8 c29 -7 352 -37 356 -34 7 5 -504 2970 -511
2972 -6 1 -107 -40 -225 -91z"/>
<path d="M5656 9217 c-14 -50 -22 -94 -18 -98 8 -8 517 -159 535 -159 12 0 84
127 76 134 -2 2 -101 40 -219 84 -118 44 -245 91 -281 105 l-67 25 -26 -91z"/>
<path d="M9958 6483 c7 -3 16 -2 19 1 4 3 -2 6 -13 5 -11 0 -14 -3 -6 -6z"/>
<path d="M20235 22255 c-159 -117 -290 -218 -290 -223 0 -5 69 -64 154 -131
l155 -121 138 332 c164 396 149 358 140 357 -4 0 -137 -97 -297 -214z"/>
<path d="M4975 21552 c-45 -28 -247 -247 -267 -290 -19 -40 -16 -81 9 -119 8
-12 149 -150 313 -307 214 -204 308 -287 335 -296 65 -21 105 3 239 145 64 68
123 137 131 152 19 36 19 76 0 113 -15 29 -576 571 -624 602 -34 23 -98 23
-136 0z"/>
<path d="M23265 19201 c-99 -45 -694 -396 -725 -427 -31 -30 -35 -40 -34 -83
0 -42 12 -68 87 -198 48 -82 97 -159 110 -171 35 -33 82 -44 126 -29 36 13
641 357 717 408 48 33 69 75 61 127 -4 36 -103 221 -170 320 -28 42 -76 72
-114 72 -10 0 -36 -9 -58 -19z"/>
<path d="M24030 15623 c-1 -27 66 -383 72 -383 13 0 658 313 658 319 0 6 -668
72 -712 71 -10 0 -18 -3 -18 -7z"/>
<path d="M23953 12220 c-48 -29 -60 -62 -82 -230 -25 -183 -26 -212 -6 -254
28 -59 45 -63 462 -116 443 -57 479 -59 517 -29 44 35 55 71 78 256 22 177 22
179 2 218 -12 25 -32 46 -54 57 -32 16 -775 118 -855 118 -17 0 -44 -9 -62
-20z"/>
<path d="M16718 2822 c2 -158 5 -288 6 -289 3 -3 335 116 353 126 10 5 -38 69
-168 222 -99 117 -184 217 -187 221 -4 4 -5 -122 -4 -280z"/>
</g>
</svg>
