<svg xmlns="http://www.w3.org/2000/svg" version="1.1" id="Layer_1" x="0" y="0" viewBox="0 0 71.412 50" xml:space="preserve" width="71.412" height="50"><style type="text/css" id="style3"></style><g id="g5" transform="scale(.58824)"><path d="M35.705 0S13.354 0 7.765 1.47c-3 .824-5.47 3.295-6.294 6.354C0 13.412 0 25 0 25s0 11.646 1.47 17.176a8.95 8.95 0 006.296 6.295C13.413 50 35.706 50 35.706 50s22.352 0 27.94-1.47a8.95 8.95 0 006.295-6.296c1.471-5.588 1.471-17.175 1.471-17.175s.059-11.647-1.47-17.235a8.95 8.95 0 00-6.296-6.295C58.058 0 35.706 0 35.706 0zm-7.117 14.295L47.176 25 28.588 35.705v-21.41z" transform="scale(1.7)" id="path7" fill="#000" fill-opacity="1"/></g></svg>